PathFileType	4	(X/Y/Z)	5_coords_data.trc
DataRate	CameraRate	NumFrames	NumMarkers	Units	OrigDataRate	OrigDataStartFrame	OrigNumFrames
30.0	30.0	5	21	m	30.0	10	68
Frame#	Time	THUMB_TIP	THUMB_IP	THUMB_MCP	THUMB_CMC	INDEX_TIP	INDEX_DIP	INDEX_PIP	INDEX_MCP	MIDDLE_TIP	MIDDLE_DIP	MIDDLE_PIP	MIDDLE_MCP	RING_TIP	RING_DIP	RING_PIP	RING_MCP	PINKY_TIP	PINKY_DIP	PINKY_PIP	PINKY_MCP	WRIST
X1	Y1	Z1	X2	Y2	Z2	X3	Y3	Z3	X4	Y4	Z4	X5	Y5	Z5	X6	Y6	Z6	X7	Y7	Z7	X8	Y8	Z8	X9	Y9	Z9	X10	Y10	Z10	X11	Y11	Z11	X12	Y12	Z12	X13	Y13	Z13	X14	Y14	Z14	X15	Y15	Z15	X16	Y16	Z16	X17	Y17	Z17	X18	Y18	Z18	X19	Y19	Z19	X20	Y20	Z20	X21	Y21	Z21
9	0.3	-0.023024099349975586	-0.12590499877929687	1.03318994140625	-0.00588362979888916	-0.11327799987792969	1.0453699951171875	-0.0005144749879837031	-0.09703019714355468	1.0693199462890626	-0.01642959976196289	-0.07411270141601563	1.0780699462890626	-0.008153300285339355	-0.19616299438476562	1.046550048828125	-0.010595399856567383	-0.17858399963378907	1.059530029296875	-0.015913999557495118	-0.162406005859375	1.07302001953125	-0.024680400848388673	-0.13254299926757812	1.092280029296875	-0.014845999717712402	-0.09064730072021485	1.053719970703125	-0.017410100936889647	-0.11123500061035156	1.053199951171875	-0.019833200454711913	-0.13654200744628905	1.056780029296875	-0.0438390998840332	-0.13036399841308594	1.0900999755859375	-0.015513899803161622	-0.09508470153808593	1.04418994140625	-0.024836000442504884	-0.11264299774169922	1.043780029296875	-0.03735139846801758	-0.13443299865722655	1.046719970703125	-0.054655498504638675	-0.12231099700927735	1.0760899658203125	-0.07766020202636718	-0.16880900573730467	1.035760009765625	-0.07171399688720703	-0.15020899963378906	1.043550048828125	-0.06619090270996093	-0.13489500427246093	1.0506600341796875	-0.05711790084838867	-0.11200499725341796	1.0591500244140626	-0.04204550170898438	-0.05757270050048828	1.0981800537109374
10	0.3333333333333333	-0.022575399398803712	-0.12621099853515624	1.0336600341796875	-0.00550082015991211	-0.1135790023803711	1.0458599853515624	-0.00019717800617218	-0.09730760192871094	1.06981005859375	-0.016172199249267577	-0.07437640380859376	1.078469970703125	-0.007636149883270263	-0.1965469970703125	1.0470899658203126	-0.010139599800109863	-0.17888400268554688	1.060010009765625	-0.015459199905395508	-0.16271600341796874	1.073489990234375	-0.024206199645996095	-0.13281199645996095	1.0927099609375	-0.01447350025177002	-0.09093270111083984	1.0541700439453126	-0.017007699966430666	-0.11155799865722656	1.053530029296875	-0.019453399658203124	-0.13682699584960936	1.05731005859375	-0.043408599853515625	-0.13082899475097656	1.0907099609375	-0.015105199813842774	-0.09536119842529298	1.0444599609375	-0.02440959930419922	-0.11301300048828125	1.0441199951171876	-0.03695169830322265	-0.13471800231933595	1.0471400146484375	-0.054321998596191405	-0.12265399932861328	1.076510009765625	-0.07721810150146484	-0.16916600036621093	1.035989990234375	-0.0712970962524414	-0.1505330047607422	1.0438199462890625	-0.06578910064697266	-0.13522999572753908	1.0509599609375	-0.056841598510742185	-0.11234700012207031	1.0596800537109374	-0.04180770111083985	-0.05794869995117188	1.0983499755859376
11	0.36666666666666664	-0.022181400299072264	-0.1265260009765625	1.0338699951171875	-0.005092860221862793	-0.11391400146484375	1.0461400146484374	9.4203896820545e-05	-0.09766629791259765	1.0701199951171876	-0.015938400268554687	-0.07466190338134765	1.07881005859375	-0.007074790000915527	-0.19680999755859374	1.047510009765625	-0.009624890327453613	-0.1791929931640625	1.0604100341796876	-0.01501259994506836	-0.16305000305175782	1.0738199462890625	-0.023827499389648437	-0.1331959991455078	1.0929300537109374	-0.014046299934387206	-0.09131490325927734	1.0546199951171875	-0.01673520088195801	-0.1117740020751953	1.0539100341796874	-0.019050100326538085	-0.13717599487304688	1.057760009765625	-0.04288619995117188	-0.13136399841308594	1.0909599609375	-0.014795499801635742	-0.09566439819335938	1.044949951171875	-0.024019399642944337	-0.11325299835205078	1.0444000244140625	-0.036472801208496095	-0.13509700012207032	1.0473399658203124	-0.053935501098632814	-0.12301899719238281	1.0768299560546875	-0.0768230972290039	-0.16946600341796875	1.0361400146484374	-0.07092109680175782	-0.15083599853515625	1.0440400390625	-0.06544280242919921	-0.13550300598144532	1.051280029296875	-0.05665610122680664	-0.11280699920654297	1.060219970703125	-0.04149869918823242	-0.05824359893798828	1.0988399658203125
12	0.4	-0.021856500625610353	-0.1268730010986328	1.034300048828125	-0.004871620178222656	-0.11422100067138671	1.0465400390625	0.000101972997188568	-0.09800340270996094	1.07043994140625	-0.015680500030517578	-0.075029296875	1.0794000244140625	-0.006784969806671142	-0.1971199951171875	1.0478499755859374	-0.009395489692687988	-0.1795780029296875	1.060780029296875	-0.014803899765014648	-0.16342300415039063	1.07425	-0.02373819923400879	-0.133552001953125	1.0931800537109375	-0.013917499542236329	-0.0916095962524414	1.0550400390625	-0.016354299545288085	-0.11227899932861328	1.054449951171875	-0.018906000137329102	-0.13750399780273437	1.057969970703125	-0.04273500061035156	-0.13172799682617187	1.0911500244140624	-0.014533100128173828	-0.09599620056152344	1.045300048828125	-0.0237367000579834	-0.11365499877929687	1.0446600341796874	-0.03629349899291992	-0.13541999816894532	1.0476600341796876	-0.05372439956665039	-0.12356800079345703	1.0768699951171874	-0.07672190093994141	-0.16970399475097656	1.03627001953125	-0.07081120300292969	-0.151156005859375	1.0442099609375	-0.06533999633789063	-0.13588299560546874	1.051469970703125	-0.056235801696777346	-0.1130240020751953	1.0601600341796875	-0.04130599975585938	-0.058607398986816404	1.098949951171875
13	0.43333333333333335	-0.02172599983215332	-0.12734500122070314	1.0345400390625	-0.004780360221862793	-0.11461699676513672	1.0468499755859375	0.000258603990077972	-0.09828630065917969	1.0710400390625	-0.01569320011138916	-0.07539219665527344	1.0798399658203126	-0.006659820079803467	-0.19741600036621093	1.0480999755859375	-0.0093126802444458	-0.17984500122070313	1.0610799560546875	-0.01475409984588623	-0.1637480010986328	1.074510009765625	-0.023686800003051758	-0.13383900451660155	1.0935	-0.014010000228881835	-0.09183070373535156	1.05522998046875	-0.01634189987182617	-0.11266600036621094	1.05456005859375	-0.018881200790405273	-0.13783799743652345	1.0586500244140624	-0.042655799865722654	-0.1321510009765625	1.09156005859375	-0.014497400283813477	-0.09631410217285157	1.0456600341796876	-0.023656700134277345	-0.11406900024414063	1.04493994140625	-0.03629069900512695	-0.13575100708007812	1.04802001953125	-0.05365710067749024	-0.12373400115966797	1.0776099853515626	-0.0766592025756836	-0.1700030059814453	1.03643994140625	-0.07075540161132812	-0.15147300720214843	1.0444599609375	-0.06531990051269532	-0.13630799865722656	1.0516500244140625	-0.05634749984741211	-0.11345700073242188	1.060699951171875	-0.04137580108642578	-0.058884998321533204	1.099449951171875
